<?xml version="1.0" encoding="UTF-8" standalone="no" ?>
<!DOCTYPE svg PUBLIC "-//W3C//DTD SVG 1.1//EN" "http://www.w3.org/Graphics/SVG/1.1/DTD/svg11.dtd">
<svg xmlns="http://www.w3.org/2000/svg" xmlns:xlink="http://www.w3.org/1999/xlink" version="1.1" width="1080" height="1080" viewBox="0 0 1080 1080" xml:space="preserve">
<desc>Created with Fabric.js 5.2.4</desc>
<defs>
</defs>
<rect x="0" y="0" width="100%" height="100%" fill="transparent"></rect>
<g transform="matrix(1 0 0 1 540 540)" id="5d957285-cea1-4a3e-a1d0-73db59ace478"  >
<rect style="stroke: none; stroke-width: 1; stroke-dasharray: none; stroke-linecap: butt; stroke-dashoffset: 0; stroke-linejoin: miter; stroke-miterlimit: 4; fill: rgb(255,0,0); fill-rule: nonzero; opacity: 1; visibility: hidden;" vector-effect="non-scaling-stroke"  x="-540" y="-540" rx="0" ry="0" width="1080" height="1080" />
</g>
<g transform="matrix(1 0 0 1 540 540)" id="05723339-fffc-4d55-b084-5cdea8c87349"  >
</g>
<g transform="matrix(18.76 0 0 18.76 541.02 538.98)"  >
<path style="stroke: none; stroke-width: 1; stroke-dasharray: none; stroke-linecap: butt; stroke-dashoffset: 0; stroke-linejoin: miter; stroke-miterlimit: 4; fill: rgb(255,255,255); fill-rule: nonzero; opacity: 1;" vector-effect="non-scaling-stroke"  transform=" translate(-28.09, -28.09)" d="M 3.59 42.52 C 5.154039453605484 45.45574085292503 7.206730656675469 48.103611053919764 9.660000000000007 50.35000000000001 L 33.24 50.35 C 32.13650843737364 52.41088981553376 30.840749433797797 54.36289885709634 29.370000000000008 56.18000000000001 L 36.93 56.18 C 40.55241483009312 54.92809549452688 43.87816954838211 52.943535616571424 46.699999999999996 50.35000000000001 L 33.24 50.35 C 34.56743382707277 47.85063707898092 35.64917097128524 45.2283454879024 36.47 42.52 Z M 38.46 31.43 C 38.22462435065294 35.19159286460122 37.55346748373775 38.91315769164597 36.46 42.519999999999996 L 52.760000000000005 42.519999999999996 C 54.59740605964636 39.076246874631316 55.75511236885834 35.31115509481872 56.17 31.429999999999993 Z M 0.18 24.75 C 0.07 25.85 0 27 0 28.09 C 0 29.18 0.07 30.33 0.18 31.43 L 38.46 31.43 C 38.53 30.33 38.57 29.21 38.57 28.09 C 38.57 26.97 38.57 25.85 38.46 24.75 Z M 36.47 13.66 C 37.563467483737746 17.266842308354025 38.234624350652936 20.988407135398784 38.47 24.750000000000004 L 56.18 24.75 C 55.76511236885835 20.86884490518127 54.60740605964635 17.103753125368684 52.769999999999996 13.660000000000004 Z M 9.66 5.83 C 7.206730656675464 8.07638894608025 5.154039453605478 10.724259147074978 3.5899999999999963 13.660000000000013 L 36.47 13.66 C 35.65096394750019 10.951015032656585 34.569156190870466 8.328552266585163 33.24 5.8300000000000125 Z M 29.37 0 C 30.840749433797793 1.817101142903663 32.13650843737363 3.769110184466234 33.239999999999995 5.829999999999988 L 46.7 5.83 C 43.87816954838212 3.2364643834285833 40.55241483009313 1.2519045054731262 36.93000000000001 1.7763568394002505e-15 Z" stroke-linecap="round" />
</g>
</svg>