<?xml version="1.0" encoding="UTF-8"?> <svg xmlns="http://www.w3.org/2000/svg" xmlns:xlink="http://www.w3.org/1999/xlink" id="Layer_1" data-name="Layer 1" viewBox="0 0 259.87 64.7"><defs><style> .cls-1 { fill: url(#linear-gradient); } .cls-1, .cls-2, .cls-3, .cls-4, .cls-5, .cls-6, .cls-7, .cls-8, .cls-9 { stroke-width: 0px; } .cls-2 { fill: url(#linear-gradient-6); } .cls-3 { fill: url(#linear-gradient-5); } .cls-4 { fill: none; } .cls-5 { fill: #000051; } .cls-6 { fill: url(#linear-gradient-2); } .cls-7 { fill: url(#linear-gradient-7); } .cls-8 { fill: url(#linear-gradient-3); } .cls-9 { fill: url(#linear-gradient-4); } </style><linearGradient id="linear-gradient" x1="48.69" y1=".53" x2="3.7" y2="45.53" gradientUnits="userSpaceOnUse"><stop offset="0" stop-color="#000051"></stop><stop offset="1" stop-color="#009aff"></stop></linearGradient><linearGradient id="linear-gradient-2" x1="61.82" y1="13.66" x2="16.83" y2="58.65" xlink:href="#linear-gradient"></linearGradient><linearGradient id="linear-gradient-3" x1="75.19" y1="27.03" x2="30.2" y2="72.02" xlink:href="#linear-gradient"></linearGradient><linearGradient id="linear-gradient-4" x1="70.99" y1="22.83" x2="26" y2="67.82" xlink:href="#linear-gradient"></linearGradient><linearGradient id="linear-gradient-5" x1="51.07" y1="2.91" x2="6.08" y2="47.9" xlink:href="#linear-gradient"></linearGradient><linearGradient id="linear-gradient-6" x1="43.25" y1="-4.91" x2="-1.74" y2="40.08" xlink:href="#linear-gradient"></linearGradient><linearGradient id="linear-gradient-7" x1="60.57" y1="12.41" x2="15.58" y2="57.4" xlink:href="#linear-gradient"></linearGradient></defs><g><path class="cls-1" d="m36.82,8.33h18.06c-3-2.71-6.51-4.86-10.36-6.29h-11.29c1.33,2.01,2.53,4.11,3.59,6.29Z"></path><path class="cls-6" d="m42.21,28.75h23.16c-.48-4.3-1.79-8.35-3.79-11.97h-21.49c1.13,3.83,1.85,7.84,2.12,11.97Z"></path><path class="cls-8" d="m33.22,62.67h11.29c3.86-1.44,7.37-3.59,10.36-6.29h-18.06c-1.06,2.18-2.26,4.28-3.59,6.29Z"></path><path class="cls-9" d="m40.09,47.92h21.49c1.99-3.62,3.31-7.67,3.79-11.97h-23.16c-.27,4.13-.99,8.14-2.12,11.97Z"></path><path class="cls-3" d="m42.33,32.35c0-1.21-.05-2.41-.13-3.6H1.07c-.13,1.18-.2,2.38-.2,3.6s.07,2.42.2,3.6h41.13c.08-1.19.13-2.39.13-3.6Z"></path><path class="cls-2" d="m36.81,8.33H11.55c-2.68,2.41-4.94,5.27-6.69,8.45h35.22c-.86-2.92-1.95-5.75-3.27-8.45Z"></path><path class="cls-7" d="m40.08,47.92H4.86c1.75,3.18,4.02,6.04,6.69,8.45h25.26c1.31-2.7,2.4-5.53,3.27-8.45Z"></path></g><circle class="cls-4" cx="33.21" cy="32.35" r="32.35"></circle><g><g><path class="cls-5" d="m94.46,20.11c-.28-.6-.66-1.1-1.12-1.51-.46-.41-.99-.76-1.57-1.03-.59-.27-1.19-.51-1.81-.71-.62-.2-1.22-.39-1.8-.56-.59-.17-1.11-.36-1.57-.58-.46-.22-.84-.47-1.12-.77-.28-.3-.43-.67-.43-1.12,0-.7.26-1.27.78-1.71.52-.44,1.29-.65,2.33-.65.59,0,1.1.07,1.54.22.44.15.83.3,1.16.47.34.17.63.33.89.47.25.15.49.22.71.22s.42-.05.56-.15c.14-.1.29-.26.43-.47l1.1-1.98c-.77-.68-1.7-1.2-2.81-1.58-1.11-.38-2.32-.57-3.62-.57-1.16,0-2.2.17-3.1.51s-1.66.78-2.27,1.34c-.62.55-1.08,1.19-1.4,1.9-.32.71-.48,1.45-.48,2.21,0,.95.14,1.74.43,2.38.28.64.65,1.17,1.11,1.6.46.43.98.78,1.57,1.04.59.26,1.19.49,1.8.68.62.19,1.22.36,1.81.51.59.15,1.11.34,1.57.56.46.22.83.48,1.11.8.28.32.43.74.43,1.25,0,.89-.29,1.56-.86,2.01s-1.38.68-2.42.68c-.72,0-1.33-.09-1.84-.28-.51-.19-.96-.39-1.35-.62-.39-.23-.73-.43-1.03-.62-.3-.19-.58-.28-.85-.28-.2,0-.39.05-.57.15-.18.1-.32.22-.43.37l-1.31,2c.42.4.91.77,1.46,1.1.56.33,1.15.61,1.78.84s1.29.42,1.97.55c.68.13,1.37.2,2.05.2,1.2,0,2.28-.17,3.23-.52.95-.35,1.75-.82,2.39-1.43s1.14-1.31,1.48-2.12c.34-.81.51-1.68.51-2.61,0-.85-.14-1.58-.42-2.17Z"></path><path class="cls-5" d="m102.28,18.18c.37-.38.76-.67,1.19-.88.42-.21.87-.32,1.35-.32.75,0,1.31.19,1.69.58.38.39.57,1.04.57,1.96v9.22h4.12v-9.22c0-.41.06-.78.19-1.1.12-.32.3-.59.52-.8.22-.22.48-.38.78-.49.29-.11.61-.16.96-.16,1.54,0,2.31.85,2.31,2.55v9.22h4.12v-9.22c0-.87-.12-1.65-.36-2.34-.24-.68-.58-1.26-1.04-1.74-.45-.47-1.01-.83-1.68-1.08-.67-.24-1.43-.37-2.3-.37-.49,0-.97.05-1.45.15-.48.1-.94.25-1.37.46-.43.21-.83.48-1.19.81-.36.33-.67.73-.92,1.19-.32-.79-.79-1.42-1.4-1.89-.62-.47-1.4-.71-2.34-.71-.45,0-.86.05-1.25.14-.38.09-.74.22-1.07.39-.33.16-.63.36-.92.58-.28.22-.56.47-.83.73l-.24-.94c-.17-.45-.51-.68-1.03-.68h-2.54v14.51h4.12v-10.57Z"></path><path class="cls-5" d="m130.08,28.47c.39-.16.77-.37,1.13-.61.36-.24.74-.52,1.13-.84l.33.91c.13.33.3.54.5.65.2.1.5.15.89.15h1.88v-9.12c0-.83-.13-1.59-.4-2.28-.27-.69-.65-1.29-1.16-1.79-.5-.5-1.11-.89-1.84-1.18-.72-.28-1.54-.42-2.45-.42-1.27,0-2.46.19-3.55.57-1.09.38-2.09.95-3,1.72l.73,1.24c.13.19.29.35.49.49.19.14.43.2.72.2.33,0,.62-.06.87-.19.25-.13.51-.26.8-.41.28-.15.61-.28.99-.41.38-.13.85-.19,1.42-.19.77,0,1.35.21,1.76.64.41.43.61,1.1.61,2.01v.75c-1.76.04-3.22.2-4.39.49-1.17.29-2.1.65-2.8,1.09-.7.44-1.2.92-1.48,1.45-.29.53-.43,1.06-.43,1.6,0,.65.11,1.22.33,1.72.22.5.53.91.93,1.25.4.33.88.58,1.44.75.56.17,1.17.25,1.85.25.54,0,1.03-.04,1.47-.13.44-.08.86-.21,1.25-.37Zm-2.83-2.47c-.33-.23-.5-.63-.5-1.2,0-.28.08-.54.25-.78.16-.24.44-.45.83-.63s.92-.34,1.59-.46c.67-.12,1.5-.2,2.51-.24v2.25c-.5.48-1,.83-1.51,1.06-.51.23-1.1.34-1.78.34-.6,0-1.06-.12-1.4-.35Z"></path><path class="cls-5" d="m146.81,17.66c.26,0,.54.02.83.06.3.04.53.06.69.06.18,0,.32-.04.43-.11.1-.07.18-.2.23-.39l.27-2.87c-.44-.31-1-.46-1.7-.46-.86,0-1.6.24-2.24.72-.64.48-1.21,1.13-1.69,1.96l-.21-1.45c-.07-.35-.18-.59-.34-.73-.16-.14-.45-.21-.86-.21h-2.43v14.51h4.12v-8.88c.31-.69.68-1.24,1.13-1.63.44-.39,1.04-.58,1.8-.58Z"></path><path class="cls-5" d="m160.24,25.57c-.08-.05-.18-.08-.3-.08-.09,0-.18.02-.26.06-.08.04-.18.09-.28.14-.1.05-.22.1-.36.14-.14.04-.31.06-.51.06-.38,0-.67-.12-.87-.35-.2-.23-.31-.55-.31-.96v-7.57h3.97v-2.7h-3.97v-4.42h-2.15c-.5,0-.8.21-.91.63l-.84,3.76-2.46.42v1.52c0,.26.08.46.23.59.15.13.34.2.56.2h1.45v7.82c0,.64.09,1.21.28,1.72.19.51.47.94.84,1.29.37.36.82.63,1.36.82.54.19,1.15.29,1.85.29.77,0,1.51-.11,2.22-.32.72-.22,1.36-.53,1.92-.96l-1.24-1.86c-.08-.12-.16-.21-.24-.26Z"></path><path class="cls-5" d="m172.34,28.85c.58-.07,1.15-.2,1.72-.38.57-.18,1.11-.43,1.64-.75.53-.31,1.01-.71,1.45-1.19l-1.19-1.41c-.18-.23-.43-.34-.75-.34-.25,0-.5.06-.75.19s-.54.27-.85.42c-.31.15-.68.3-1.09.42s-.9.19-1.47.19c-1.12,0-2.03-.31-2.72-.94-.69-.63-1.1-1.62-1.23-2.98h9.23c.19,0,.34-.02.46-.06.12-.04.21-.12.28-.23.07-.11.12-.26.15-.45.03-.19.04-.43.04-.72,0-1.05-.17-1.99-.5-2.81-.33-.82-.8-1.51-1.4-2.08-.6-.56-1.32-.99-2.15-1.29-.83-.3-1.74-.44-2.72-.44-1.16,0-2.21.19-3.13.57-.92.38-1.71.89-2.36,1.54-.65.65-1.14,1.41-1.48,2.28-.34.87-.51,1.8-.51,2.79,0,1.28.2,2.4.6,3.36.4.97.94,1.78,1.63,2.43.69.65,1.5,1.14,2.43,1.48.93.33,1.93.5,3.01.5.54,0,1.09-.04,1.67-.11Zm-4.09-11.31c.56-.53,1.33-.79,2.31-.79.53,0,.98.08,1.36.25.38.16.69.39.94.67.25.28.43.61.54.97.11.37.17.75.17,1.15h-6.41c.17-.97.53-1.71,1.09-2.24Z"></path><path class="cls-5" d="m189.01,17.78c.18,0,.32-.04.43-.11.1-.07.18-.2.23-.39l.27-2.87c-.44-.31-1-.46-1.7-.46-.86,0-1.6.24-2.24.72-.64.48-1.21,1.13-1.69,1.96l-.21-1.45c-.07-.35-.18-.59-.34-.73-.16-.14-.45-.21-.86-.21h-2.43v14.51h4.12v-8.88c.31-.69.68-1.24,1.13-1.63.44-.39,1.04-.58,1.8-.58.26,0,.54.02.83.06.3.04.53.06.69.06Z"></path></g><g><path class="cls-5" d="m141.04,43.17c-.44-.49-.99-.87-1.64-1.14-.65-.27-1.39-.41-2.23-.41-.95,0-1.76.15-2.45.46-.69.31-1.32.71-1.9,1.2v-7.92h-4.12v21.01h4.12v-10.44c.46-.41.94-.74,1.44-.98.5-.24,1.05-.36,1.64-.36.78,0,1.36.22,1.76.67.4.45.6,1.07.6,1.88v9.23h4.11v-9.23c0-.81-.11-1.55-.34-2.23-.22-.68-.56-1.26-1-1.75Z"></path><rect class="cls-5" x="181.55" y="35.37" width="4.12" height="21.01"></rect><path class="cls-5" d="m227.5,36.04c-.23-.22-.51-.39-.82-.51-.31-.12-.65-.18-1.01-.18-.34,0-.66.06-.96.18-.3.12-.57.29-.8.51-.23.22-.41.47-.55.75-.13.29-.2.59-.2.92s.07.63.2.92c.13.28.32.53.55.75.23.22.5.39.8.51.3.12.62.18.96.18.36,0,.69-.06,1.01-.18.31-.12.59-.29.82-.51.23-.22.42-.47.56-.75.14-.28.21-.59.21-.92s-.07-.64-.21-.92c-.14-.29-.33-.54-.56-.75Z"></path><rect class="cls-5" x="223.66" y="41.85" width="4.12" height="14.53"></rect><polygon class="cls-5" points="97.15 35.93 79.99 35.93 79.99 39.34 86.33 39.34 86.33 56.37 90.82 56.37 90.82 39.34 97.15 39.34 97.15 35.93"></polygon><path class="cls-5" d="m108.8,43.35c-.6-.56-1.32-.99-2.15-1.29-.83-.3-1.74-.44-2.73-.44-1.16,0-2.21.19-3.14.57-.93.38-1.71.89-2.36,1.54-.65.65-1.14,1.41-1.49,2.28-.34.87-.52,1.8-.52,2.79,0,1.28.2,2.4.6,3.37.4.97.94,1.78,1.64,2.43.69.65,1.5,1.15,2.43,1.48.93.33,1.93.5,3.01.5.54,0,1.1-.04,1.67-.11.58-.07,1.15-.2,1.72-.38.57-.18,1.12-.43,1.64-.75.53-.31,1.01-.71,1.45-1.19l-1.19-1.41c-.18-.23-.43-.34-.75-.34-.25,0-.5.06-.75.19-.25.13-.54.27-.85.42s-.68.3-1.09.42c-.41.13-.9.19-1.47.19-1.13,0-2.03-.31-2.72-.94-.69-.63-1.1-1.62-1.23-2.99h9.24c.19,0,.34-.02.46-.06.12-.04.21-.12.28-.23.07-.11.12-.26.15-.45.03-.19.04-.43.04-.72,0-1.05-.17-1.99-.5-2.81-.33-.82-.8-1.51-1.4-2.08Zm-8.21,4.04c.17-.97.53-1.72,1.09-2.25.56-.53,1.33-.8,2.31-.8.53,0,.98.08,1.36.25.38.16.69.39.94.67.25.28.43.61.54.97.12.37.17.75.17,1.16h-6.42Z"></path><path class="cls-5" d="m124.29,52.41c-.17,0-.32.03-.46.09-.13.06-.27.14-.4.23-.13.09-.28.2-.43.31-.15.11-.33.22-.53.31-.2.09-.44.17-.72.23-.27.06-.6.09-.98.09-1.1,0-1.96-.39-2.59-1.18-.63-.79-.95-1.93-.95-3.41,0-.7.07-1.34.22-1.9.14-.56.37-1.04.66-1.44.3-.39.67-.7,1.13-.91.45-.21.99-.32,1.61-.32.49,0,.9.05,1.22.16.33.11.61.23.85.35.24.13.45.24.63.35.18.11.38.16.58.16.22,0,.39-.04.51-.12.12-.08.24-.19.36-.35l1.07-1.38c-.71-.68-1.5-1.19-2.39-1.55-.89-.36-1.92-.54-3.09-.54-1.23,0-2.32.19-3.26.57-.94.38-1.73.9-2.37,1.57-.64.67-1.12,1.46-1.45,2.37-.33.91-.49,1.9-.49,2.96,0,1.19.19,2.25.56,3.18.37.93.88,1.71,1.52,2.35.64.64,1.38,1.12,2.23,1.46.85.33,1.74.5,2.69.5.54,0,1.08-.04,1.63-.11.55-.07,1.09-.2,1.62-.38.53-.18,1.05-.43,1.55-.75.5-.31.97-.71,1.4-1.19l-1.18-1.41c-.18-.23-.43-.34-.75-.34Z"></path><path class="cls-5" d="m158.55,43.17c-.44-.49-.99-.87-1.64-1.14-.65-.27-1.39-.41-2.23-.41-.51,0-.98.05-1.41.14-.43.09-.84.23-1.21.39-.37.17-.73.37-1.06.61-.33.24-.65.49-.96.78l-.25-1.01c-.17-.45-.51-.68-1.03-.68h-2.54v14.53h4.12v-10.44c.46-.41.94-.74,1.44-.98.5-.24,1.05-.36,1.64-.36.78,0,1.36.22,1.76.67.4.45.6,1.07.6,1.88v9.23h4.11v-9.23c0-.81-.11-1.55-.34-2.23-.22-.68-.56-1.26-1-1.75Z"></path><path class="cls-5" d="m176.22,43.63c-.68-.64-1.49-1.14-2.43-1.49-.95-.35-2-.52-3.15-.52s-2.22.17-3.17.52c-.95.35-1.76.84-2.44,1.49s-1.2,1.43-1.58,2.35c-.37.92-.56,1.96-.56,3.11s.19,2.2.56,3.12c.37.93.9,1.71,1.58,2.36s1.49,1.15,2.44,1.49c.95.35,2.01.52,3.17.52s2.21-.17,3.15-.52c.95-.35,1.76-.85,2.43-1.49.68-.65,1.2-1.43,1.57-2.36.37-.93.55-1.97.55-3.12s-.18-2.19-.55-3.11c-.37-.92-.89-1.7-1.57-2.35Zm-2.97,8.89c-.57.77-1.44,1.15-2.61,1.15s-2.09-.38-2.66-1.15-.85-1.9-.85-3.42.28-2.64.85-3.4c.57-.77,1.45-1.15,2.66-1.15s2.05.38,2.61,1.15c.57.77.85,1.9.85,3.4s-.28,2.65-.85,3.42Z"></path><path class="cls-5" d="m202.23,43.63c-.68-.64-1.49-1.14-2.43-1.49-.95-.35-2-.52-3.15-.52s-2.22.17-3.17.52c-.95.35-1.76.84-2.44,1.49-.68.64-1.2,1.43-1.58,2.35s-.56,1.96-.56,3.11.19,2.2.56,3.12c.37.93.9,1.71,1.58,2.36.68.65,1.49,1.15,2.44,1.49.95.35,2.01.52,3.17.52s2.21-.17,3.15-.52c.95-.35,1.76-.85,2.43-1.49.68-.65,1.2-1.43,1.57-2.36.37-.93.55-1.97.55-3.12s-.18-2.19-.55-3.11c-.37-.92-.89-1.7-1.57-2.35Zm-2.97,8.89c-.57.77-1.44,1.15-2.61,1.15s-2.09-.38-2.66-1.15c-.57-.77-.85-1.9-.85-3.42s.28-2.64.85-3.4c.57-.77,1.45-1.15,2.66-1.15s2.05.38,2.61,1.15c.57.77.85,1.9.85,3.4s-.28,2.65-.85,3.42Z"></path><path class="cls-5" d="m214.91,41.78c-.58-.13-1.2-.19-1.86-.19-.89,0-1.71.11-2.46.32-.76.22-1.41.53-1.97.94-.56.41-.99.9-1.31,1.49s-.47,1.24-.47,1.96c0,.88.23,1.66.68,2.32.45.66,1.07,1.2,1.86,1.6-.69.32-1.2.72-1.53,1.19-.33.47-.5.93-.5,1.36,0,.54.11.97.34,1.3.23.33.54.6.93.81-.73.27-1.3.63-1.72,1.09-.42.45-.63,1-.63,1.65,0,.5.14.98.42,1.44.28.46.7.87,1.28,1.22.57.35,1.29.63,2.17.85.87.21,1.9.32,3.08.32s2.26-.15,3.2-.44c.94-.29,1.73-.68,2.37-1.16.64-.48,1.13-1.02,1.47-1.63.34-.61.51-1.24.51-1.89,0-.7-.14-1.26-.43-1.7-.28-.44-.66-.8-1.12-1.06-.46-.27-.99-.46-1.58-.58-.59-.12-1.19-.2-1.81-.25-.61-.05-1.22-.08-1.81-.09-.59-.01-1.12-.05-1.58-.1-.46-.05-.84-.14-1.12-.26-.28-.12-.43-.32-.43-.59,0-.29.2-.55.61-.79.25.04.5.07.76.08.26.02.52.03.79.03.87,0,1.67-.11,2.42-.33.75-.22,1.39-.54,1.94-.94.55-.41.98-.9,1.29-1.48.31-.58.47-1.23.47-1.95,0-.53-.08-1.02-.25-1.48l1.25-.24c.31-.07.53-.16.66-.3s.2-.31.2-.54v-1.42h-4.53c-.49-.23-1.02-.42-1.61-.54Zm-3.89,13.72c.45.05.91.08,1.38.1.47.02.93.04,1.37.06.44.02.85.06,1.24.1.39.04.72.11,1.01.2.28.09.51.22.68.38.17.16.25.37.25.62s-.06.49-.19.7c-.12.22-.33.4-.62.56-.29.16-.67.27-1.13.36-.47.08-1.04.13-1.72.13s-1.21-.04-1.64-.12c-.44-.08-.79-.19-1.06-.33-.27-.14-.46-.31-.58-.51-.11-.2-.17-.41-.17-.65,0-.34.11-.64.33-.91.22-.27.5-.5.85-.7Zm3.91-7.54c-.4.4-1.03.61-1.87.61s-1.46-.2-1.86-.61c-.4-.41-.6-.93-.6-1.56,0-.67.2-1.19.6-1.57.4-.38,1.02-.57,1.87-.57s1.47.19,1.87.57c.4.38.61.9.61,1.57s-.2,1.16-.61,1.56Z"></path><path class="cls-5" d="m243.28,43.35c-.6-.56-1.32-.99-2.15-1.29-.83-.3-1.74-.44-2.73-.44-1.16,0-2.21.19-3.14.57-.93.38-1.71.89-2.36,1.54-.65.65-1.14,1.41-1.49,2.28-.34.87-.52,1.8-.52,2.79,0,1.28.2,2.4.6,3.37.4.97.94,1.78,1.64,2.43.69.65,1.5,1.15,2.43,1.48.93.33,1.93.5,3.01.5.54,0,1.1-.04,1.67-.11.58-.07,1.15-.2,1.72-.38.57-.18,1.12-.43,1.64-.75.53-.31,1.01-.71,1.45-1.19l-1.19-1.41c-.18-.23-.43-.34-.75-.34-.25,0-.5.06-.75.19-.25.13-.54.27-.85.42-.31.15-.68.3-1.09.42s-.9.19-1.47.19c-1.13,0-2.03-.31-2.73-.94-.69-.63-1.1-1.62-1.23-2.99h9.24c.19,0,.34-.02.46-.06.12-.04.21-.12.28-.23.07-.11.12-.26.15-.45.03-.19.04-.43.04-.72,0-1.05-.17-1.99-.5-2.81-.33-.82-.8-1.51-1.4-2.08Zm-8.21,4.04c.17-.97.53-1.72,1.09-2.25.56-.53,1.33-.8,2.31-.8.53,0,.98.08,1.36.25.38.16.69.39.94.67.25.28.43.61.54.97.11.37.17.75.17,1.16h-6.42Z"></path><path class="cls-5" d="m258.69,50.21c-.21-.42-.49-.77-.83-1.07-.34-.3-.73-.54-1.17-.74-.44-.2-.89-.37-1.35-.52-.46-.15-.91-.29-1.35-.42-.44-.13-.83-.26-1.17-.41-.34-.15-.62-.32-.83-.51-.21-.2-.31-.44-.31-.73,0-.42.18-.76.55-1.02.37-.26.89-.39,1.55-.39.44,0,.82.05,1.16.14.33.09.63.19.89.3.26.11.49.21.7.3.21.09.41.14.61.14s.36-.04.47-.11c.11-.07.23-.19.34-.35l.94-1.38c-.58-.54-1.31-.99-2.21-1.32-.9-.34-1.89-.51-2.99-.51-.98,0-1.83.12-2.58.37-.74.24-1.36.57-1.86.99-.5.41-.87.89-1.12,1.43-.25.54-.37,1.11-.37,1.71,0,.66.11,1.22.32,1.68.21.46.49.85.84,1.16.34.31.74.58,1.18.78.44.21.9.39,1.36.54.46.15.92.29,1.37.41.45.12.84.26,1.19.41.34.15.62.33.84.53.21.2.32.46.32.78,0,.2-.04.39-.13.57s-.22.35-.4.49c-.18.15-.41.26-.7.35-.29.08-.63.13-1.03.13-.53,0-.97-.06-1.32-.18-.35-.12-.66-.24-.92-.38-.26-.14-.49-.26-.7-.38-.21-.12-.44-.18-.69-.18s-.47.05-.63.14c-.16.09-.3.23-.41.39l-.96,1.45c.3.25.65.49,1.06.7.41.22.85.41,1.31.57.47.16.96.29,1.48.38.52.09,1.04.13,1.57.13,1.02,0,1.93-.12,2.72-.37.79-.24,1.44-.58,1.97-1.01s.93-.95,1.2-1.54c.27-.6.41-1.25.41-1.95,0-.59-.1-1.1-.31-1.51Z"></path></g></g></svg> 